<svg width="50" height="50" viewBox="0 0 50 50" fill="none" xmlns="http://www.w3.org/2000/svg">
<g clip-path="url(#clip0_106_62)">
<path d="M50 0H0V50H50V0Z" fill="white"/>
<path d="M42.5226 43C41.4989 43 40.6559 42.7063 39.9935 42.1189C39.3312 41.4988 39 40.6341 39 39.5245C39 38.3823 39.3312 37.5175 39.9935 36.9301C40.6559 36.31 41.4989 36 42.5226 36C43.5161 36 44.3441 36.31 45.0065 36.9301C45.6688 37.5175 46 38.3823 46 39.5245C46 40.6341 45.6688 41.4988 45.0065 42.1189C44.3441 42.7063 43.5161 43 42.5226 43Z" fill="black"/>
<path d="M38.124 33.484C38.124 34.628 37.916 35.72 37.5 36.76C37.084 37.7653 36.512 38.6667 35.784 39.464C35.056 40.2613 34.2067 40.9547 33.236 41.544C32.2653 42.0987 31.2427 42.48 30.168 42.688C29.3013 42.8613 28.4173 42.9653 27.516 43C26.6147 43 25.7133 43 24.812 43H5V41.804C5.17333 41.804 5.624 41.804 6.352 41.804C7.11467 41.7693 7.912 41.7347 8.744 41.7C9.61067 41.6307 10.408 41.5613 11.136 41.492C11.864 41.388 12.332 41.2667 12.54 41.128C12.748 40.9893 12.904 40.608 13.008 39.984C13.112 39.36 13.1813 38.684 13.216 37.956C13.2853 37.228 13.32 36.5347 13.32 35.876C13.3547 35.2173 13.372 34.7493 13.372 34.472V16.896C13.372 15.8907 13.3547 14.868 13.32 13.828C13.2853 12.788 13.112 11.7827 12.8 10.812C12.7307 10.5347 12.6613 10.3613 12.592 10.292C12.5573 10.188 12.4013 10.1013 12.124 10.032C11.6733 9.89333 11.136 9.80667 10.512 9.772C9.888 9.70266 9.22933 9.65067 8.536 9.616C7.87733 9.58133 7.236 9.564 6.612 9.564C5.988 9.564 5.45067 9.564 5 9.564V8.316H19.196C19.716 8.316 20.2187 8.33333 20.704 8.368C21.224 8.368 21.744 8.368 22.264 8.368C23.096 8.368 23.928 8.38533 24.76 8.42C25.592 8.42 26.3893 8.48933 27.152 8.628C27.9493 8.76667 28.712 8.97467 29.44 9.252C30.2027 9.52933 30.9307 9.94533 31.624 10.5C32.4907 11.1933 33.2013 12.0773 33.756 13.152C34.3453 14.2267 34.64 15.336 34.64 16.48C34.64 17.312 34.484 18.0573 34.172 18.716C33.86 19.34 33.444 19.912 32.924 20.432C32.404 20.952 31.8147 21.4027 31.156 21.784C30.4973 22.1653 29.8213 22.4773 29.128 22.72C30.3067 23.2053 31.4333 23.7773 32.508 24.436C33.6173 25.0947 34.588 25.8573 35.42 26.724C36.252 27.5907 36.9107 28.5787 37.396 29.688C37.8813 30.7973 38.124 32.0627 38.124 33.484ZM28.764 16.688C28.764 15.44 28.4867 14.3827 27.932 13.516C27.3773 12.6147 26.6667 11.904 25.8 11.384C24.9333 10.8293 23.9453 10.4307 22.836 10.188C21.7613 9.91066 20.6867 9.772 19.612 9.772H19.04C18.8667 10.6733 18.7453 11.592 18.676 12.528C18.6413 13.4293 18.5893 14.3307 18.52 15.232C18.4853 15.8213 18.4507 16.4107 18.416 17C18.3813 17.5547 18.364 18.1267 18.364 18.716V22.148C18.8147 22.2173 19.248 22.2693 19.664 22.304C20.1147 22.3387 20.5653 22.356 21.016 22.356C21.952 22.356 22.8707 22.2693 23.772 22.096C24.708 21.9227 25.54 21.6107 26.268 21.16C26.996 20.7093 27.5853 20.1373 28.036 19.444C28.5213 18.716 28.764 17.7973 28.764 16.688ZM31.936 33.016C31.936 31.8373 31.6587 30.676 31.104 29.532C30.584 28.3533 29.9253 27.3307 29.128 26.464C28.608 25.9093 28.088 25.4587 27.568 25.112C27.0827 24.7653 26.5627 24.5227 26.008 24.384C25.4533 24.2107 24.864 24.1067 24.24 24.072C23.616 24.0027 22.94 23.968 22.212 23.968C21.5533 23.968 20.912 23.9853 20.288 24.02C19.664 24.0547 19.0227 24.0893 18.364 24.124V33.536C18.364 33.9867 18.364 34.4373 18.364 34.888C18.3987 35.304 18.4333 35.7373 18.468 36.188C18.5027 36.7773 18.52 37.28 18.52 37.696C18.52 38.0773 18.5373 38.4413 18.572 38.788C18.6067 39.1 18.6413 39.4467 18.676 39.828C18.7453 40.2093 18.8493 40.6947 18.988 41.284C19.612 41.3533 20.236 41.4227 20.86 41.492C21.5187 41.5267 22.16 41.544 22.784 41.544C23.8933 41.544 25.0373 41.44 26.216 41.232C27.3947 40.9893 28.4173 40.452 29.284 39.62C30.0813 38.8573 30.7227 37.852 31.208 36.604C31.6933 35.3213 31.936 34.1253 31.936 33.016Z" fill="black"/>
</g>
<defs>
<clipPath id="clip0_106_62">
<rect width="50" height="50" fill="white"/>
</clipPath>
</defs>
</svg>
