<svg width="101" height="28" viewBox="0 0 101 28" fill="none" xmlns="http://www.w3.org/2000/svg">
<path d="M98.304 27.9201C97.632 27.9201 97.08 27.7401 96.648 27.3801C96.216 26.9961 96 26.4681 96 25.7961C96 25.1001 96.216 24.5601 96.648 24.1761C97.08 23.7921 97.632 23.6001 98.304 23.6001C98.952 23.6001 99.492 23.7921 99.924 24.1761C100.356 24.5601 100.572 25.1001 100.572 25.7961C100.572 26.4681 100.356 26.9961 99.924 27.3801C99.492 27.7401 98.952 27.9201 98.304 27.9201Z" fill="white"/>
<path d="M25.48 20.28C25.48 21.16 25.32 22 25 22.8C24.68 23.5733 24.24 24.2667 23.68 24.88C23.12 25.4933 22.4667 26.0267 21.72 26.48C20.9733 26.9067 20.1867 27.2 19.36 27.36C18.6933 27.4933 18.0133 27.5733 17.32 27.6C16.6267 27.6 15.9333 27.6 15.24 27.6H0V26.68C0.133333 26.68 0.48 26.68 1.04 26.68C1.62667 26.6533 2.24 26.6267 2.88 26.6C3.54667 26.5467 4.16 26.4933 4.72 26.44C5.28 26.36 5.64 26.2667 5.8 26.16C5.96 26.0533 6.08 25.76 6.16 25.28C6.24 24.8 6.29333 24.28 6.32 23.72C6.37333 23.16 6.4 22.6267 6.4 22.12C6.42667 21.6133 6.44 21.2533 6.44 21.04V7.52C6.44 6.7467 6.42667 5.96 6.4 5.16C6.37333 4.36 6.24 3.5867 6 2.84C5.94667 2.6267 5.89333 2.4933 5.84 2.44C5.81333 2.36 5.69333 2.2933 5.48 2.24C5.13333 2.1333 4.72 2.0667 4.24 2.04C3.76 1.9867 3.25333 1.9467 2.72 1.92C2.21333 1.8933 1.72 1.88 1.24 1.88C0.76 1.88 0.346667 1.88 0 1.88V0.92H10.92C11.32 0.92 11.7067 0.93333 12.08 0.96C12.48 0.96 12.88 0.96 13.28 0.96C13.92 0.96 14.56 0.97333 15.2 1C15.84 1 16.4533 1.05333 17.04 1.16C17.6533 1.26667 18.24 1.42667 18.8 1.64C19.3867 1.8533 19.9467 2.1733 20.48 2.6C21.1467 3.1333 21.6933 3.8133 22.12 4.64C22.5733 5.4667 22.8 6.32 22.8 7.2C22.8 7.84 22.68 8.4133 22.44 8.92C22.2 9.4 21.88 9.84 21.48 10.24C21.08 10.64 20.6267 10.9867 20.12 11.28C19.6133 11.5733 19.0933 11.8133 18.56 12C19.4667 12.3733 20.3333 12.8133 21.16 13.32C22.0133 13.8267 22.76 14.4133 23.4 15.08C24.04 15.7467 24.5467 16.5067 24.92 17.36C25.2933 18.2133 25.48 19.1867 25.48 20.28ZM18.28 7.36C18.28 6.4 18.0667 5.5867 17.64 4.92C17.2133 4.2267 16.6667 3.68 16 3.28C15.3333 2.8533 14.5733 2.5467 13.72 2.36C12.8933 2.1467 12.0667 2.04 11.24 2.04H10.8C10.6667 2.7333 10.5733 3.44 10.52 4.16C10.4933 4.8533 10.4533 5.5467 10.4 6.24C10.3733 6.6933 10.3467 7.1467 10.32 7.6C10.2933 8.0267 10.28 8.4667 10.28 8.92V11.56C10.6267 11.6133 10.96 11.6533 11.28 11.68C11.6267 11.7067 11.9733 11.72 12.32 11.72C13.04 11.72 13.7467 11.6533 14.44 11.52C15.16 11.3867 15.8 11.1467 16.36 10.8C16.92 10.4533 17.3733 10.0133 17.72 9.48C18.0933 8.92 18.28 8.2133 18.28 7.36ZM20.72 19.92C20.72 19.0133 20.5067 18.12 20.08 17.24C19.68 16.3333 19.1733 15.5467 18.56 14.88C18.16 14.4533 17.76 14.1067 17.36 13.84C16.9867 13.5733 16.5867 13.3867 16.16 13.28C15.7333 13.1467 15.28 13.0667 14.8 13.04C14.32 12.9867 13.8 12.96 13.24 12.96C12.7333 12.96 12.24 12.9733 11.76 13C11.28 13.0267 10.7867 13.0533 10.28 13.08V20.32C10.28 20.6667 10.28 21.0133 10.28 21.36C10.3067 21.68 10.3333 22.0133 10.36 22.36C10.3867 22.8133 10.4 23.2 10.4 23.52C10.4 23.8133 10.4133 24.0933 10.44 24.36C10.4667 24.6 10.4933 24.8667 10.52 25.16C10.5733 25.4533 10.6533 25.8267 10.76 26.28C11.24 26.3333 11.72 26.3867 12.2 26.44C12.7067 26.4667 13.2 26.48 13.68 26.48C14.5333 26.48 15.4133 26.4 16.32 26.24C17.2267 26.0533 18.0133 25.64 18.68 25C19.2933 24.4133 19.7867 23.64 20.16 22.68C20.5333 21.6933 20.72 20.7733 20.72 19.92ZM37.5306 27.6V26.88C38.224 26.8 38.7306 26.7333 39.0506 26.68C39.3973 26.6 39.624 26.4667 39.7306 26.28C39.864 26.0667 39.9173 25.7467 39.8906 25.32C39.864 24.8933 39.8506 24.2933 39.8506 23.52C39.8506 23.2267 39.8373 22.8667 39.8106 22.44C39.8106 21.9867 39.784 21.52 39.7306 21.04C39.704 20.56 39.6506 20.1067 39.5706 19.68C39.4906 19.2533 39.3973 18.9067 39.2906 18.64C39.1306 18.2933 38.864 18 38.4906 17.76C38.144 17.52 37.784 17.4 37.4106 17.4C37.1173 17.4 36.784 17.5067 36.4106 17.72C36.064 17.9067 35.704 18.1333 35.3306 18.4C34.984 18.6667 34.6373 18.9467 34.2906 19.24C33.9706 19.5333 33.704 19.7733 33.4906 19.96V23.4C33.4906 23.8267 33.4906 24.2667 33.4906 24.72C33.4906 25.1733 33.544 25.6 33.6506 26C33.704 26.2133 33.8373 26.3733 34.0506 26.48C34.264 26.5867 34.504 26.6667 34.7706 26.72C35.064 26.7733 35.344 26.8133 35.6106 26.84C35.904 26.8667 36.1306 26.88 36.2906 26.88V27.6H27.9706V26.88C28.7706 26.72 29.384 26.6 29.8106 26.52C30.2373 26.44 30.5306 26.2933 30.6906 26.08C30.8773 25.84 30.9706 25.5067 30.9706 25.08C30.9973 24.6533 31.0106 24.0267 31.0106 23.2C31.0106 20.8533 31.0106 18.5333 31.0106 16.24C31.0373 13.9467 31.0506 11.6267 31.0506 9.28C31.0506 8.3467 31.0506 7.2933 31.0506 6.12C31.0773 4.9467 31.024 3.8933 30.8906 2.96C30.864 2.8267 30.824 2.72 30.7706 2.64C30.744 2.56 30.6506 2.52 30.4906 2.52C30.2773 2.52 29.9706 2.6267 29.5706 2.84C29.1973 3.0267 28.9173 3.1733 28.7306 3.28L28.4506 2.68L33.4906 0L33.8506 0.360001C33.6373 0.733331 33.5173 1.17333 33.4906 1.68C33.4906 2.16 33.4906 2.6133 33.4906 3.04V19.16C33.864 18.8133 34.2506 18.48 34.6506 18.16C35.0506 17.84 35.4506 17.52 35.8506 17.2C36.304 16.8267 36.7173 16.5467 37.0906 16.36C37.4906 16.1733 37.9973 16.08 38.6106 16.08C39.704 16.08 40.6106 16.4267 41.3306 17.12C42.0506 17.7867 42.4106 18.68 42.4106 19.8C42.4106 20.4133 42.3973 21.0133 42.3706 21.6C42.344 22.16 42.3306 22.7467 42.3306 23.36C42.3306 23.8133 42.3306 24.2933 42.3306 24.8C42.3306 25.28 42.3573 25.7467 42.4106 26.2C42.4373 26.3867 42.5306 26.52 42.6906 26.6C42.8773 26.68 43.0773 26.7467 43.2906 26.8C43.504 26.8267 43.7173 26.8533 43.9306 26.88C44.1706 26.88 44.3573 26.88 44.4906 26.88V27.6H37.5306ZM58.9591 27C58.4257 27.24 57.8391 27.4533 57.1991 27.64C56.5857 27.8533 55.9857 27.96 55.3991 27.96C54.7324 27.96 54.2657 27.7867 53.9991 27.44C53.7591 27.0667 53.6124 26.5733 53.5591 25.96C52.9191 26.4933 52.2124 26.96 51.4391 27.36C50.6657 27.76 49.8524 27.96 48.9991 27.96C48.2524 27.96 47.5991 27.7867 47.0391 27.44C46.5057 27.0667 46.2391 26.4667 46.2391 25.64C46.2391 25.08 46.3591 24.6133 46.5991 24.24C46.8657 23.84 47.1991 23.5067 47.5991 23.24C47.9991 22.9733 48.4391 22.7467 48.9191 22.56C49.3991 22.3733 49.8657 22.2133 50.3191 22.08C50.8524 21.8933 51.3857 21.72 51.9191 21.56C52.4791 21.4 53.0257 21.2533 53.5591 21.12V19.4C53.5591 19.0533 53.5457 18.72 53.5191 18.4C53.4924 18.08 53.4257 17.8 53.3191 17.56C53.2124 17.2933 53.0391 17.08 52.7991 16.92C52.5857 16.76 52.2657 16.68 51.8391 16.68C50.9591 16.68 50.3457 16.8667 49.9991 17.24C49.6791 17.5867 49.4391 17.9867 49.2791 18.44C49.1457 18.8667 48.9991 19.2667 48.8391 19.64C48.7057 19.9867 48.3724 20.16 47.8391 20.16C47.5457 20.16 47.2924 20.0533 47.0791 19.84C46.8657 19.6267 46.7591 19.3733 46.7591 19.08C46.7591 18.92 46.7991 18.7733 46.8791 18.64C46.9591 18.5067 47.0524 18.3733 47.1591 18.24C47.4257 17.9467 47.7591 17.6667 48.1591 17.4C48.5591 17.1333 48.9857 16.9067 49.4391 16.72C49.9191 16.5067 50.3857 16.3467 50.8391 16.24C51.3191 16.1067 51.7591 16.04 52.1591 16.04C52.6124 16.04 53.0657 16.0933 53.5191 16.2C53.9724 16.3067 54.3857 16.48 54.7591 16.72C55.1324 16.9333 55.4391 17.2267 55.6791 17.6C55.9457 17.9467 56.0924 18.3733 56.1191 18.88C56.1457 19.12 56.1591 19.36 56.1591 19.6C56.1591 19.8133 56.1591 20.04 56.1591 20.28C56.1857 21.24 56.1991 22.2 56.1991 23.16C56.2257 24.12 56.2657 25.08 56.3191 26.04C56.3457 26.36 56.3991 26.6 56.4791 26.76C56.5591 26.8933 56.7724 26.96 57.1191 26.96C57.3591 26.96 57.6391 26.8933 57.9591 26.76C58.2791 26.6 58.5591 26.48 58.7991 26.4L58.9591 27ZM53.5591 21.76C53.1324 21.84 52.6524 21.96 52.1191 22.12C51.5857 22.28 51.0791 22.5067 50.5991 22.8C50.1191 23.0667 49.7191 23.4 49.3991 23.8C49.0791 24.1733 48.9191 24.64 48.9191 25.2C48.9191 25.6533 49.0391 26.0267 49.2791 26.32C49.5191 26.6133 49.8791 26.76 50.3591 26.76C50.9191 26.76 51.4924 26.5867 52.0791 26.24C52.6657 25.8933 53.1591 25.5333 53.5591 25.16V21.76ZM70.1425 17.8C70.1425 18.04 69.9692 18.3067 69.6225 18.6C69.3025 18.8667 69.0225 19 68.7825 19C68.6225 19 68.4892 18.9467 68.3825 18.84C68.2758 18.7067 68.1692 18.5733 68.0625 18.44C67.9825 18.28 67.8758 18.1467 67.7425 18.04C67.6092 17.9067 67.4492 17.84 67.2625 17.84C67.1025 17.84 66.9292 17.9067 66.7425 18.04C66.5558 18.1467 66.3825 18.2933 66.2225 18.48C66.0625 18.6667 65.9025 18.8533 65.7425 19.04C65.6092 19.2267 65.5025 19.3733 65.4225 19.48C65.0225 20.04 64.7958 20.64 64.7425 21.28C64.7158 21.8933 64.7025 22.5333 64.7025 23.2C64.7025 23.6533 64.7025 24.1467 64.7025 24.68C64.7292 25.1867 64.8092 25.6667 64.9425 26.12C64.9958 26.3067 65.1158 26.4533 65.3025 26.56C65.5158 26.6667 65.7425 26.7467 65.9825 26.8C66.2225 26.8267 66.4625 26.8533 66.7025 26.88C66.9425 26.88 67.1425 26.88 67.3025 26.88V27.6H59.6225V26.88C59.9692 26.8533 60.3025 26.8267 60.6225 26.8C60.9425 26.7733 61.2758 26.7067 61.6225 26.6C62.0758 26.4667 62.3025 26.24 62.3025 25.92C62.3292 25.6 62.3558 25.24 62.3825 24.84C62.4092 24.4133 62.4225 24 62.4225 23.6C62.4492 23.1733 62.4625 22.7467 62.4625 22.32C62.4625 21.8667 62.4492 21.4267 62.4225 21C62.4225 20.5733 62.4225 20.1333 62.4225 19.68C62.4225 19.44 62.4092 19.1467 62.3825 18.8C62.3558 18.4533 62.1692 18.28 61.8225 18.28C61.6092 18.28 61.3958 18.32 61.1825 18.4C60.9958 18.48 60.8092 18.56 60.6225 18.64L60.3825 18.12L64.8225 16.04L65.1025 16.48C64.8892 16.9067 64.7692 17.36 64.7425 17.84C64.7425 18.32 64.7425 18.7867 64.7425 19.24C64.9292 19 65.1425 18.7067 65.3825 18.36C65.6492 18.0133 65.9292 17.68 66.2225 17.36C66.5158 17.04 66.8225 16.7733 67.1425 16.56C67.4625 16.3467 67.7958 16.24 68.1425 16.24C68.3292 16.24 68.5425 16.28 68.7825 16.36C69.0225 16.44 69.2358 16.56 69.4225 16.72C69.6358 16.8533 69.8092 17.0133 69.9425 17.2C70.0758 17.3867 70.1425 17.5867 70.1425 17.8ZM84.4669 27C83.9335 27.24 83.3469 27.4533 82.7069 27.64C82.0935 27.8533 81.4935 27.96 80.9069 27.96C80.2402 27.96 79.7735 27.7867 79.5069 27.44C79.2669 27.0667 79.1202 26.5733 79.0669 25.96C78.4269 26.4933 77.7202 26.96 76.9469 27.36C76.1735 27.76 75.3602 27.96 74.5069 27.96C73.7602 27.96 73.1069 27.7867 72.5469 27.44C72.0135 27.0667 71.7469 26.4667 71.7469 25.64C71.7469 25.08 71.8669 24.6133 72.1069 24.24C72.3735 23.84 72.7069 23.5067 73.1069 23.24C73.5069 22.9733 73.9469 22.7467 74.4269 22.56C74.9069 22.3733 75.3735 22.2133 75.8269 22.08C76.3602 21.8933 76.8935 21.72 77.4269 21.56C77.9869 21.4 78.5335 21.2533 79.0669 21.12V19.4C79.0669 19.0533 79.0535 18.72 79.0269 18.4C79.0002 18.08 78.9335 17.8 78.8269 17.56C78.7202 17.2933 78.5469 17.08 78.3069 16.92C78.0935 16.76 77.7735 16.68 77.3469 16.68C76.4669 16.68 75.8535 16.8667 75.5069 17.24C75.1869 17.5867 74.9469 17.9867 74.7869 18.44C74.6535 18.8667 74.5069 19.2667 74.3469 19.64C74.2135 19.9867 73.8802 20.16 73.3469 20.16C73.0535 20.16 72.8002 20.0533 72.5869 19.84C72.3735 19.6267 72.2669 19.3733 72.2669 19.08C72.2669 18.92 72.3069 18.7733 72.3869 18.64C72.4669 18.5067 72.5602 18.3733 72.6669 18.24C72.9335 17.9467 73.2669 17.6667 73.6669 17.4C74.0669 17.1333 74.4935 16.9067 74.9469 16.72C75.4269 16.5067 75.8935 16.3467 76.3469 16.24C76.8269 16.1067 77.2669 16.04 77.6669 16.04C78.1202 16.04 78.5735 16.0933 79.0269 16.2C79.4802 16.3067 79.8935 16.48 80.2669 16.72C80.6402 16.9333 80.9469 17.2267 81.1869 17.6C81.4535 17.9467 81.6002 18.3733 81.6269 18.88C81.6535 19.12 81.6669 19.36 81.6669 19.6C81.6669 19.8133 81.6669 20.04 81.6669 20.28C81.6935 21.24 81.7069 22.2 81.7069 23.16C81.7335 24.12 81.7735 25.08 81.8269 26.04C81.8535 26.36 81.9069 26.6 81.9869 26.76C82.0669 26.8933 82.2802 26.96 82.6269 26.96C82.8669 26.96 83.1469 26.8933 83.4669 26.76C83.7869 26.6 84.0669 26.48 84.3069 26.4L84.4669 27ZM79.0669 21.76C78.6402 21.84 78.1602 21.96 77.6269 22.12C77.0935 22.28 76.5869 22.5067 76.1069 22.8C75.6269 23.0667 75.2269 23.4 74.9069 23.8C74.5869 24.1733 74.4269 24.64 74.4269 25.2C74.4269 25.6533 74.5469 26.0267 74.7869 26.32C75.0269 26.6133 75.3869 26.76 75.8669 26.76C76.4269 26.76 77.0002 26.5867 77.5869 26.24C78.1735 25.8933 78.6669 25.5333 79.0669 25.16V21.76ZM92.9303 17.4C92.317 17.3467 91.7036 17.3067 91.0903 17.28C90.477 17.2533 89.8636 17.2267 89.2503 17.2C89.1703 18.6133 89.1303 20 89.1303 21.36C89.1303 21.6533 89.1303 22.1067 89.1303 22.72C89.1303 23.3333 89.1703 23.9467 89.2503 24.56C89.3303 25.1733 89.477 25.72 89.6903 26.2C89.9303 26.68 90.277 26.92 90.7303 26.92C91.0236 26.92 91.2903 26.8533 91.5303 26.72C91.7703 26.56 91.997 26.4133 92.2103 26.28L92.5303 26.68C91.9436 27.08 91.4236 27.3867 90.9703 27.6C90.517 27.84 89.917 27.96 89.1703 27.96C88.5303 27.96 88.0503 27.88 87.7303 27.72C87.437 27.56 87.2236 27.3333 87.0903 27.04C86.957 26.72 86.8903 26.36 86.8903 25.96C86.8903 25.5333 86.8903 25.0667 86.8903 24.56C86.8903 24.4 86.8903 24.24 86.8903 24.08C86.917 23.8933 86.9303 23.72 86.9303 23.56C86.9303 22.92 86.917 22.28 86.8903 21.64C86.8903 20.9733 86.877 20.32 86.8503 19.68C86.8503 19.2267 86.8503 18.7867 86.8503 18.36C86.8503 17.9333 86.8236 17.4933 86.7703 17.04H85.0503V16.52L86.7703 16.2C86.7703 15.8267 86.7703 15.4533 86.7703 15.08C86.797 14.7067 86.8903 14.36 87.0503 14.04C87.2636 13.64 87.5836 13.28 88.0103 12.96C88.4636 12.6133 88.877 12.32 89.2503 12.08L89.6903 12.72C89.557 13.3067 89.4636 13.88 89.4103 14.44C89.357 15 89.3303 15.5867 89.3303 16.2C89.997 16.2 90.6636 16.2 91.3303 16.2C91.997 16.2 92.6636 16.2267 93.3303 16.28L92.9303 17.4Z" fill="white"/>
</svg>
