<svg width="35" height="40" viewBox="0 0 35 40" fill="none" xmlns="http://www.w3.org/2000/svg">
<path d="M5 5C5 3.67392 5.52678 2.40215 6.46447 1.46447C7.40215 0.526784 8.67392 0 10 0H25C26.3261 0 27.5979 0.526784 28.5355 1.46447C29.4732 2.40215 30 3.67392 30 5V12.7125C29.191 12.4278 28.309 12.4278 27.5 12.7125V5C27.5 4.33696 27.2366 3.70107 26.7678 3.23223C26.2989 2.76339 25.663 2.5 25 2.5H10C9.33696 2.5 8.70107 2.76339 8.23223 3.23223C7.76339 3.70107 7.5 4.33696 7.5 5V12.7125C6.69099 12.4278 5.80901 12.4278 5 12.7125V5ZM5 29.7875C5.8075 30.0725 6.6925 30.0725 7.5 29.7875V35C7.5 35.663 7.76339 36.2989 8.23223 36.7678C8.70107 37.2366 9.33696 37.5 10 37.5H25C25.663 37.5 26.2989 37.2366 26.7678 36.7678C27.2366 36.2989 27.5 35.663 27.5 35V29.7875C28.3075 30.0725 29.1925 30.0725 30 29.7875V35C30 36.3261 29.4732 37.5979 28.5355 38.5355C27.5979 39.4732 26.3261 40 25 40H10C8.67392 40 7.40215 39.4732 6.46447 38.5355C5.52678 37.5979 5 36.3261 5 35V29.7875ZM0.3675 20.365L5.3675 15.365C5.48372 15.2489 5.62166 15.1569 5.77345 15.0942C5.92523 15.0314 6.08789 14.9992 6.25213 14.9993C6.41638 14.9994 6.57899 15.0319 6.73069 15.0948C6.88238 15.1578 7.02019 15.25 7.13625 15.3662C7.25231 15.4825 7.34433 15.6204 7.40708 15.7722C7.46983 15.924 7.50206 16.0866 7.50195 16.2509C7.50183 16.4151 7.46936 16.5777 7.4064 16.7294C7.34344 16.8811 7.25122 17.0189 7.135 17.135L4.2675 20H11.25C11.5815 20 11.8995 20.1317 12.1339 20.3661C12.3683 20.6005 12.5 20.9185 12.5 21.25C12.5 21.5815 12.3683 21.8995 12.1339 22.1339C11.8995 22.3683 11.5815 22.5 11.25 22.5H4.2675L7.135 25.365C7.36972 25.5997 7.50158 25.9181 7.50158 26.25C7.50158 26.5819 7.36972 26.9003 7.135 27.135C6.90028 27.3697 6.58194 27.5016 6.25 27.5016C5.91806 27.5016 5.59972 27.3697 5.365 27.135L0.365 22.135C0.132317 21.9021 0.00111849 21.5867 0 21.2575V21.2425C0.00148818 20.9166 0.130741 20.6042 0.36 20.3725L0.3675 20.365ZM29.635 27.135L34.635 22.135L34.64 22.1275C34.869 21.8957 34.9982 21.5834 35 21.2575V21.2425C34.998 20.9142 34.8668 20.5999 34.635 20.3675L29.635 15.3675C29.4006 15.1328 29.0826 15.0008 28.7509 15.0006C28.4192 15.0003 28.101 15.1319 27.8662 15.3662C27.6315 15.6006 27.4995 15.9187 27.4993 16.2504C27.4991 16.5821 27.6306 16.9003 27.865 17.135L30.7325 20H23.75C23.4185 20 23.1005 20.1317 22.8661 20.3661C22.6317 20.6005 22.5 20.9185 22.5 21.25C22.5 21.5815 22.6317 21.8995 22.8661 22.1339C23.1005 22.3683 23.4185 22.5 23.75 22.5H30.7325L27.865 25.365C27.6303 25.5997 27.4984 25.9181 27.4984 26.25C27.4984 26.5819 27.6303 26.9003 27.865 27.135C28.0997 27.3697 28.4181 27.5016 28.75 27.5016C29.0819 27.5016 29.4003 27.3697 29.635 27.135Z" fill="white"/>
</svg>
