<svg width="50" height="50" viewBox="0 0 50 50" fill="none" xmlns="http://www.w3.org/2000/svg">
<path d="M18.75 24.9342V10.4165C18.75 8.7589 19.4085 7.16919 20.5806 5.99709C21.7527 4.82498 23.3424 4.1665 25 4.1665C26.6576 4.1665 28.2473 4.82498 29.4194 5.99709C30.5915 7.16919 31.25 8.7589 31.25 10.4165V12.5061M31.25 25.003V39.5832C31.25 41.2408 30.5915 42.8305 29.4194 44.0026C28.2473 45.1747 26.6576 45.8332 25 45.8332C23.3424 45.8332 21.7527 45.1747 20.5806 44.0026C19.4085 42.8305 18.75 41.2408 18.75 39.5832V37.4686" stroke="white" stroke-width="4.16667" stroke-linecap="round"/>
<path d="M24.9998 31.25H10.3998C6.95817 31.25 4.1665 28.4521 4.1665 25C4.1665 21.5479 6.95817 18.75 10.3998 18.75H12.4884M24.9998 18.75H39.5717C41.2308 18.7486 42.8225 19.4063 43.9967 20.5784C45.1709 21.7504 45.8315 23.3409 45.8332 25C45.8332 28.4521 43.03 31.25 39.5717 31.25H37.5686" stroke="white" stroke-width="4.16667" stroke-linecap="round"/>
</svg>
