<svg width="40" height="30" viewBox="0 0 40 30" fill="none" xmlns="http://www.w3.org/2000/svg">
<path d="M6.25 0C4.5924 0 3.00269 0.65848 1.83058 1.83058C0.65848 3.00269 0 4.5924 0 6.25V23.75C0 25.4076 0.65848 26.9973 1.83058 28.1694C3.00269 29.3415 4.5924 30 6.25 30H33.75C35.4076 30 36.9973 29.3415 38.1694 28.1694C39.3415 26.9973 40 25.4076 40 23.75V6.25C40 4.5924 39.3415 3.00269 38.1694 1.83058C36.9973 0.65848 35.4076 0 33.75 0H6.25ZM2.5 6.25C2.5 5.25544 2.89509 4.30161 3.59835 3.59835C4.30161 2.89509 5.25544 2.5 6.25 2.5H33.75C34.7446 2.5 35.6984 2.89509 36.4016 3.59835C37.1049 4.30161 37.5 5.25544 37.5 6.25V23.75C37.5 24.7446 37.1049 25.6984 36.4016 26.4017C35.6984 27.1049 34.7446 27.5 33.75 27.5H6.25C5.25544 27.5 4.30161 27.1049 3.59835 26.4017C2.89509 25.6984 2.5 24.7446 2.5 23.75V6.25ZM6.25 5C5.91848 5 5.60054 5.1317 5.36612 5.36612C5.1317 5.60054 5 5.91848 5 6.25C5 6.58152 5.1317 6.89946 5.36612 7.13388C5.60054 7.3683 5.91848 7.5 6.25 7.5H18.75C19.0815 7.5 19.3995 7.3683 19.6339 7.13388C19.8683 6.89946 20 6.58152 20 6.25C20 5.91848 19.8683 5.60054 19.6339 5.36612C19.3995 5.1317 19.0815 5 18.75 5H6.25ZM6.25 10C5.91848 10 5.60054 10.1317 5.36612 10.3661C5.1317 10.6005 5 10.9185 5 11.25C5 11.5815 5.1317 11.8995 5.36612 12.1339C5.60054 12.3683 5.91848 12.5 6.25 12.5H26.25C26.5815 12.5 26.8995 12.3683 27.1339 12.1339C27.3683 11.8995 27.5 11.5815 27.5 11.25C27.5 10.9185 27.3683 10.6005 27.1339 10.3661C26.8995 10.1317 26.5815 10 26.25 10H6.25ZM7.5 17.5C6.83696 17.5 6.20107 17.7634 5.73223 18.2322C5.26339 18.7011 5 19.337 5 20V22.5C5 23.163 5.26339 23.7989 5.73223 24.2678C6.20107 24.7366 6.83696 25 7.5 25H17.5C18.163 25 18.7989 24.7366 19.2678 24.2678C19.7366 23.7989 20 23.163 20 22.5V20C20 19.337 19.7366 18.7011 19.2678 18.2322C18.7989 17.7634 18.163 17.5 17.5 17.5H7.5Z" fill="white"/>
</svg>
